<svg width="14" height="15" viewBox="0 0 14 15" fill="none" xmlns="http://www.w3.org/2000/svg">
<g id="vuesax/linear/eye">
<g id="eye">
<path id="Vector" d="M9.08829 7.50044C9.08829 8.65544 8.15495 9.58878 6.99995 9.58878C5.84495 9.58878 4.91162 8.65544 4.91162 7.50044C4.91162 6.34544 5.84495 5.41211 6.99995 5.41211C8.15495 5.41211 9.08829 6.34544 9.08829 7.50044Z" stroke="#567191" stroke-linecap="round" stroke-linejoin="round"/>
<path id="Vector_2" d="M6.99991 12.3241C9.05908 12.3241 10.9782 11.1108 12.3141 9.01075C12.8391 8.18825 12.8391 6.80575 12.3141 5.98325C10.9782 3.88325 9.05908 2.66992 6.99991 2.66992C4.94074 2.66992 3.02158 3.88325 1.68574 5.98325C1.16074 6.80575 1.16074 8.18825 1.68574 9.01075C3.02158 11.1108 4.94074 12.3241 6.99991 12.3241Z" stroke="#567191" stroke-linecap="round" stroke-linejoin="round"/>
</g>
</g>
</svg>
