<svg width="25" height="25" viewBox="0 0 25 25" fill="none" xmlns="http://www.w3.org/2000/svg">
<g id="Group">
<path id="Shape" fill-rule="evenodd" clip-rule="evenodd" d="M24.02 13.0776C24.02 12.2267 23.9436 11.4085 23.8018 10.623H12.5V15.2649H18.9582C18.68 16.7649 17.8345 18.0358 16.5636 18.8867V21.8976H20.4418C22.7109 19.8085 24.02 16.7321 24.02 13.0776Z" fill="#4285F4"/>
<path id="Shape_2" fill-rule="evenodd" clip-rule="evenodd" d="M12.5 24.805C15.74 24.805 18.4564 23.7304 20.4418 21.8977L16.5636 18.8868C15.4891 19.6068 14.1145 20.0322 12.5 20.0322C9.37455 20.0322 6.72909 17.9213 5.78546 15.085H1.77637V18.1941C3.75091 22.1159 7.80909 24.805 12.5 24.805Z" fill="#34A853"/>
<path id="Shape_3" fill-rule="evenodd" clip-rule="evenodd" d="M5.78545 15.0851C5.54545 14.3651 5.40909 13.596 5.40909 12.8051C5.40909 12.0142 5.54545 11.2451 5.78545 10.5251V7.41602H1.77636C0.963636 9.03602 0.5 10.8687 0.5 12.8051C0.5 14.7415 0.963636 16.5742 1.77636 18.1942L5.78545 15.0851Z" fill="#FBBC05"/>
<path id="Shape_4" fill-rule="evenodd" clip-rule="evenodd" d="M12.5 5.57741C14.2618 5.57741 15.8436 6.18287 17.0873 7.37196L20.5291 3.93014C18.4509 1.99378 15.7345 0.804688 12.5 0.804688C7.80909 0.804688 3.75091 3.49378 1.77637 7.4156L5.78546 10.5247C6.72909 7.68832 9.37455 5.57741 12.5 5.57741Z" fill="#EA4335"/>
</g>
</svg>
