<svg width="14" height="15" viewBox="0 0 14 15" fill="none" xmlns="http://www.w3.org/2000/svg">
<g id="Group">
<path id="Vector" d="M7 14.543C10.866 14.543 14 11.409 14 7.54297C14 3.67698 10.866 0.542969 7 0.542969C3.13401 0.542969 0 3.67698 0 7.54297C0 11.409 3.13401 14.543 7 14.543Z" fill="#6458E4" fill-opacity="0.08"/>
<path id="Vector_2" d="M7.00046 14.5428C9.25358 14.5428 11.2515 13.4745 12.5312 11.823C11.5249 9.78132 9.42858 8.37402 7.00046 8.37402C4.57233 8.37402 2.47598 9.78132 1.46973 11.823C2.74941 13.4745 4.74733 14.5428 7.00046 14.5428Z" fill="#6458E4"/>
<path id="Vector_3" d="M7.00006 7.5431C8.26054 7.5431 9.28236 6.52128 9.28236 5.26081C9.28236 4.00033 8.26054 2.97852 7.00006 2.97852C5.73959 2.97852 4.71777 4.00033 4.71777 5.26081C4.71777 6.52128 5.73959 7.5431 7.00006 7.5431Z" fill="#6458E4"/>
</g>
</svg>
