<svg width="16" height="17" viewBox="0 0 16 17" fill="none" xmlns="http://www.w3.org/2000/svg">
<g id="vuesax/linear/language-circle">
<g id="language-circle">
<g id="Group">
<path id="Vector" d="M11.3267 6.0166H4.67334" stroke="url(#paint0_linear_312_407)" stroke-width="1.5" stroke-linecap="round" stroke-linejoin="round"/>
<path id="Vector_2" d="M8 4.89648V6.01648" stroke="url(#paint1_linear_312_407)" stroke-width="1.5" stroke-linecap="round" stroke-linejoin="round"/>
<path id="Vector_3" d="M9.6665 6.00293C9.6665 8.8696 7.4265 11.1896 4.6665 11.1896" stroke="url(#paint2_linear_312_407)" stroke-width="1.5" stroke-linecap="round" stroke-linejoin="round"/>
<path id="Vector_4" d="M11.3331 11.1896C10.1331 11.1896 9.06647 10.5496 8.2998 9.54297" stroke="url(#paint3_linear_312_407)" stroke-width="1.5" stroke-linecap="round" stroke-linejoin="round"/>
</g>
<path id="Vector_5" d="M8.00016 14.7093C11.6821 14.7093 14.6668 11.7245 14.6668 8.04264C14.6668 4.36074 11.6821 1.37598 8.00016 1.37598C4.31826 1.37598 1.3335 4.36074 1.3335 8.04264C1.3335 11.7245 4.31826 14.7093 8.00016 14.7093Z" stroke="url(#paint4_linear_312_407)" stroke-width="1.5" stroke-linecap="round" stroke-linejoin="round"/>
</g>
</g>
<defs>
<linearGradient id="paint0_linear_312_407" x1="4.70868" y1="6.0166" x2="4.99658" y2="7.95266" gradientUnits="userSpaceOnUse">
<stop stop-color="#24E1C8"/>
<stop offset="1" stop-color="#6458E4"/>
</linearGradient>
<linearGradient id="paint1_linear_312_407" x1="8.00531" y1="4.89648" x2="9.10766" y2="5.8913" gradientUnits="userSpaceOnUse">
<stop stop-color="#24E1C8"/>
<stop offset="1" stop-color="#6458E4"/>
</linearGradient>
<linearGradient id="paint2_linear_312_407" x1="4.69306" y1="6.00293" x2="9.82317" y2="11.0015" gradientUnits="userSpaceOnUse">
<stop stop-color="#24E1C8"/>
<stop offset="1" stop-color="#6458E4"/>
</linearGradient>
<linearGradient id="paint3_linear_312_407" x1="8.31592" y1="9.54297" x2="9.6742" y2="12.072" gradientUnits="userSpaceOnUse">
<stop stop-color="#24E1C8"/>
<stop offset="1" stop-color="#6458E4"/>
</linearGradient>
<linearGradient id="paint4_linear_312_407" x1="1.40431" y1="1.37598" x2="14.596" y2="14.7093" gradientUnits="userSpaceOnUse">
<stop stop-color="#24E1C8"/>
<stop offset="1" stop-color="#6458E4"/>
</linearGradient>
</defs>
</svg>
